<svg xmlns="http://www.w3.org/2000/svg" viewBox="0 0 1200 630" width="1200" height="630">
  <defs>
    <linearGradient id="bg" x1="0%" y1="0%" x2="100%" y2="100%">
      <stop offset="0%" stop-color="#0a1628"/>
      <stop offset="40%" stop-color="#12294a"/>
      <stop offset="70%" stop-color="#1a3a5c"/>
      <stop offset="100%" stop-color="#0d2847"/>
    </linearGradient>
    <radialGradient id="glow" cx="70%" cy="40%" r="55%">
      <stop offset="0%" stop-color="#c9a96e" stop-opacity="0.16"/>
      <stop offset="100%" stop-color="#c9a96e" stop-opacity="0"/>
    </radialGradient>
  </defs>
  <rect width="1200" height="630" fill="url(#bg)"/>
  <rect width="1200" height="630" fill="url(#glow)"/>

  <!-- Skyline silhouette at bottom, low opacity -->
  <g transform="translate(-200, 470) scale(1.0, 0.55)" fill="#ffffff" opacity="0.05">
    <rect x="20" y="220" width="40" height="60"/>
    <rect x="62" y="200" width="30" height="80"/>
    <rect x="120" y="170" width="6" height="110"/>
    <circle cx="123" cy="160" r="22"/>
    <rect x="180" y="195" width="58" height="85"/>
    <rect x="240" y="170" width="48" height="110"/>
    <rect x="290" y="150" width="22" height="130"/>
    <rect x="330" y="180" width="45" height="100"/>
    <rect x="377" y="155" width="38" height="125"/>
    <rect x="417" y="190" width="30" height="90"/>
    <rect x="470" y="110" width="56" height="170"/>
    <rect x="555" y="170" width="40" height="110"/>
    <rect x="660" y="120" width="22" height="160"/>
    <rect x="690" y="120" width="22" height="160"/>
    <rect x="660" y="120" width="52" height="6"/>
    <rect x="668" y="108" width="36" height="6"/>
    <rect x="735" y="145" width="44" height="135"/>
    <rect x="800" y="160" width="35" height="120"/>
    <rect x="850" y="135" width="50" height="145"/>
    <rect x="910" y="160" width="48" height="120"/>
    <rect x="975" y="180" width="32" height="100"/>
    <rect x="1045" y="170" width="42" height="110"/>
    <rect x="1100" y="155" width="48" height="125"/>
    <rect x="1165" y="190" width="40" height="90"/>
    <rect x="1215" y="175" width="55" height="105"/>
    <rect x="1320" y="210" width="35" height="70"/>
    <rect x="1358" y="195" width="42" height="85"/>
    <rect x="1435" y="205" width="38" height="75"/>
    <rect x="1525" y="215" width="32" height="65"/>
  </g>

  <!-- Wordmark, centered upper area -->
  <g transform="translate(380, 200)">
    <text x="0" y="68" font-family="Georgia, 'Times New Roman', serif" font-size="84" font-style="italic" fill="#ffffff" letter-spacing="1">Sab&#x131;ne</text>
    <polygon points="194.2,-7.5 197.4,1.7 207.4,1.9 199.4,7.7 202.5,17.0 194.2,11.3 185.9,17.0 188.9,7.7 181.0,1.9 191.0,1.7" fill="#c9a96e"/>
    <line x1="0" y1="80" x2="320" y2="80" stroke="rgba(255,255,255,0.4)" stroke-width="1.5"/>
    <text x="0" y="116" font-family="Georgia, 'Times New Roman', serif" font-size="30" font-style="italic" fill="rgba(255,255,255,0.85)" letter-spacing="4">Capital Partners</text>
  </g>

  <!-- Tagline below logo -->
  <text x="600" y="430" font-family="'Segoe UI', sans-serif" font-size="20" font-weight="500" fill="#c9a96e" letter-spacing="3" text-anchor="middle">PRIVATE CREDIT &#8226; MIDDLE MARKET</text>
  <text x="600" y="478" font-family="Georgia, 'Times New Roman', serif" font-size="38" font-style="italic" fill="#ffffff" text-anchor="middle">Arranging the right capital structure.</text>
  <text x="600" y="518" font-family="'Segoe UI', sans-serif" font-size="18" fill="rgba(255,255,255,0.75)" letter-spacing="1.5" text-anchor="middle">$5M&#8211;$50M facilities &#183; Dallas &#183; Since 2010</text>
</svg>
